<svg id="Capa_1" enable-background="new 0 0 510 510" height="512" viewBox="0 0 510 510" width="512" xmlns="http://www.w3.org/2000/svg" xmlns:xlink="http://www.w3.org/1999/xlink"><linearGradient id="lg1"><stop offset="0" stop-color="#bbec6c"/><stop offset="1" stop-color="#81b823"/></linearGradient><linearGradient id="SVGID_1_" gradientUnits="userSpaceOnUse" x1="135.291" x2="178.291" xlink:href="#lg1" y1="23.647" y2="96.314"/><linearGradient id="lg2"><stop offset="0" stop-color="#81b823"/><stop offset="1" stop-color="#017b4e"/></linearGradient><linearGradient id="SVGID_00000094607093279239192510000005701669527097121671_" gradientTransform="matrix(.5 .866 -.866 .5 972.817 265.324)" gradientUnits="userSpaceOnUse" x1="-272.326" x2="-171.419" xlink:href="#lg2" y1="595.719" y2="595.719"/><linearGradient id="lg3"><stop offset="0" stop-color="#017b4e" stop-opacity="0"/><stop offset="1" stop-color="#026841"/></linearGradient><linearGradient id="SVGID_00000029751763763537352690000002272017868251846023_" gradientTransform="matrix(.5 .866 -.866 .5 972.817 265.324)" gradientUnits="userSpaceOnUse" x1="-221.873" x2="-221.873" xlink:href="#lg3" y1="578.376" y2="707.136"/><linearGradient id="SVGID_00000042004151173718658360000016056810537022230183_" gradientTransform="matrix(.5 .866 -.866 .5 972.817 265.324)" gradientUnits="userSpaceOnUse" x1="-221.873" x2="-221.873" xlink:href="#lg3" y1="540.452" y2="673.189"/><linearGradient id="SVGID_00000103256378658627675760000014237103569499865257_" gradientTransform="matrix(.5 .866 -.866 .5 972.817 265.324)" gradientUnits="userSpaceOnUse" x1="-221.873" x2="-221.873" xlink:href="#lg3" y1="506.69" y2="606.974"/><linearGradient id="SVGID_00000116203516636842334600000002357922587378705581_" gradientTransform="matrix(.5 .866 -.866 .5 972.817 265.324)" gradientUnits="userSpaceOnUse" x1="-198.377" x2="-237.227" xlink:href="#lg3" y1="593.245" y2="597.407"/><linearGradient id="SVGID_00000006703030889370194050000012924386822007310265_" gradientUnits="userSpaceOnUse" x1="343.154" x2="335.821" y1="385.382" y2="422.715"><stop offset="0" stop-color="#01525a" stop-opacity="0"/><stop offset="1" stop-color="#01525a"/></linearGradient><linearGradient id="SVGID_00000134957298075855297950000014285449443857417096_" gradientTransform="matrix(.866 .5 .5 -.866 977.887 -168.373)" gradientUnits="userSpaceOnUse" x1="-536.923" x2="-497.18" xlink:href="#lg2" y1="-708.148" y2="-708.148"/><linearGradient id="SVGID_00000098900331240885555610000001465897353018774174_" gradientTransform="matrix(.866 .5 .5 -.866 977.887 -168.373)" gradientUnits="userSpaceOnUse" x1="-507.798" x2="-523.099" xlink:href="#lg3" y1="-709.123" y2="-707.484"/><linearGradient id="SVGID_00000021823674462667273680000007808830554110450346_" gradientUnits="userSpaceOnUse" x1="145.379" x2="96.713" xlink:href="#lg1" y1="188.415" y2="260.415"/><linearGradient id="SVGID_00000168829347758467534920000015360845469289402776_" gradientUnits="userSpaceOnUse" x1="152.305" x2="359.294" y1="255.624" y2="407.117"><stop offset="0" stop-color="#5a5a5a"/><stop offset="1" stop-color="#444"/></linearGradient><linearGradient id="lg4"><stop offset="0" stop-color="#433f43" stop-opacity="0"/><stop offset="1" stop-color="#1a1a1a"/></linearGradient><linearGradient id="SVGID_00000165923062861089187000000003204858591244789135_" gradientUnits="userSpaceOnUse" x1="81.685" x2="426.668" xlink:href="#lg4" y1="179.094" y2="477.579"/><linearGradient id="SVGID_00000143609450691601785330000003372591539558131359_" gradientUnits="userSpaceOnUse" x1="180.998" x2="136.952" xlink:href="#lg4" y1="342.699" y2="342.699"/><linearGradient id="SVGID_00000057123475416013068040000002053533235562039466_" gradientUnits="userSpaceOnUse" x1="245.179" x2="222.968" xlink:href="#lg4" y1="267.378" y2="195.192"/><linearGradient id="SVGID_00000125600204660253559490000006958895143792385678_" gradientUnits="userSpaceOnUse" x1="254.998" x2="254.998" xlink:href="#lg4" y1="455.41" y2="507.549"/><linearGradient id="SVGID_00000019655643717806349160000005550945859844210079_" gradientUnits="userSpaceOnUse" x1="254.8" x2="259.3" y1="421.756" y2="381.256"><stop offset="0" stop-color="#433f43" stop-opacity="0"/><stop offset="1"/></linearGradient><linearGradient id="SVGID_00000045604658103332299530000003241568696435395465_" gradientUnits="userSpaceOnUse" x1="332.664" x2="386.668" xlink:href="#lg4" y1="229.503" y2="229.503"/><linearGradient id="SVGID_00000138541363771293457580000004747071722152280734_" gradientUnits="userSpaceOnUse" x1="332.664" x2="386.668" xlink:href="#lg4" y1="454.921" y2="454.921"/><linearGradient id="SVGID_00000029010085705542976510000000606379477622847649_" gradientTransform="matrix(-.966 .259 .259 .966 645.496 -602.471)" gradientUnits="userSpaceOnUse" x1="779.455" x2="819.198" xlink:href="#lg1" y1="800.112" y2="800.112"/><linearGradient id="lg5"><stop offset="0" stop-color="#78a91f" stop-opacity="0"/><stop offset=".1632" stop-color="#73a620" stop-opacity=".163"/><stop offset=".3542" stop-color="#659e24" stop-opacity=".354"/><stop offset=".5591" stop-color="#4e912b" stop-opacity=".559"/><stop offset=".7737" stop-color="#2d8034" stop-opacity=".774"/><stop offset=".994" stop-color="#036941" stop-opacity=".994"/><stop offset="1" stop-color="#026841"/></linearGradient><linearGradient id="SVGID_00000050639979866085984830000000543071726210153402_" gradientTransform="matrix(-.966 .259 .259 .966 645.496 -602.471)" gradientUnits="userSpaceOnUse" x1="808.58" x2="793.279" xlink:href="#lg5" y1="799.138" y2="800.777"/><linearGradient id="SVGID_00000029743595228155595330000002490766407245323944_" gradientUnits="userSpaceOnUse" x1="92.668" x2="140.168" xlink:href="#lg1" y1="382.549" y2="415.049"/><linearGradient id="SVGID_00000115503175900937687070000007863033662278634405_" gradientUnits="userSpaceOnUse" x1="131.363" x2="167.863" xlink:href="#lg5" y1="403.058" y2="371.558"/><linearGradient id="SVGID_00000094620416901869555200000015507945354430773405_" gradientTransform="matrix(-.966 .259 .259 .966 645.496 -602.471)" gradientUnits="userSpaceOnUse" x1="711.11" x2="750.853" xlink:href="#lg1" y1="545.046" y2="545.046"/><linearGradient id="SVGID_00000136376823925759103500000004209874454259082934_" gradientTransform="matrix(-.966 .259 .259 .966 645.496 -602.471)" gradientUnits="userSpaceOnUse" x1="740.235" x2="724.934" xlink:href="#lg5" y1="544.071" y2="545.71"/><linearGradient id="SVGID_00000053507768771237620190000001784268175592342432_" gradientTransform="matrix(-.966 .259 .259 .966 645.496 -602.471)" gradientUnits="userSpaceOnUse" x1="559.213" x2="598.956" xlink:href="#lg1" y1="593.856" y2="593.856"/><linearGradient id="SVGID_00000111191643680039909720000016695638656098222006_" gradientTransform="matrix(-.966 .259 .259 .966 645.496 -602.471)" gradientUnits="userSpaceOnUse" x1="588.339" x2="573.038" xlink:href="#lg5" y1="592.882" y2="594.521"/><linearGradient id="SVGID_00000014602368619245865100000014980080898523903128_" gradientUnits="userSpaceOnUse" x1="129.822" x2="289.338" xlink:href="#lg1" y1="79.89" y2="236.6"/><linearGradient id="SVGID_00000047772647909734343420000011979736341341860517_" gradientUnits="userSpaceOnUse" x1="211.403" x2="234.069" xlink:href="#lg5" y1="387.205" y2="434.538"/><linearGradient id="SVGID_00000145054092735550256390000010138497757230252985_" gradientUnits="userSpaceOnUse" x1="241.727" x2="302.227" xlink:href="#lg5" y1="64.396" y2="93.396"/><linearGradient id="SVGID_00000124149026830179300480000003500489702866600626_" gradientTransform="matrix(.5 .866 -.866 .5 -303.408 -89.99)" gradientUnits="userSpaceOnUse" x1="414.171" x2="515.078" xlink:href="#lg1" y1="-503.743" y2="-503.743"/><linearGradient id="SVGID_00000150075189490351363180000017691143996404372648_" gradientTransform="matrix(.5 .866 -.866 .5 -303.408 -89.99)" gradientUnits="userSpaceOnUse" x1="464.625" x2="464.625" xlink:href="#lg5" y1="-521.087" y2="-392.327"/><linearGradient id="SVGID_00000117675107728487078100000009979347551914336428_" gradientTransform="matrix(.5 .866 -.866 .5 -303.408 -89.99)" gradientUnits="userSpaceOnUse" x1="464.625" x2="464.625" xlink:href="#lg5" y1="-559.011" y2="-426.273"/><linearGradient id="SVGID_00000085968264230333460770000004846901080085586873_" gradientTransform="matrix(.5 .866 -.866 .5 -303.408 -89.99)" gradientUnits="userSpaceOnUse" x1="464.625" x2="464.625" xlink:href="#lg5" y1="-592.773" y2="-492.489"/><linearGradient id="SVGID_00000030480471182753164900000008279232211957427135_" gradientTransform="matrix(.5 .866 -.866 .5 -303.408 -89.99)" gradientUnits="userSpaceOnUse" x1="488.12" x2="449.271" xlink:href="#lg5" y1="-506.218" y2="-502.056"/><g><path d="m100.355 42.213c0-10.648 4.146-20.659 11.676-28.189 18.698-18.698 49.123-18.698 67.821 0 10.968 10.968 17.008 25.551 17.008 41.062 0 15.512-6.04 30.095-17.008 41.062-2.929 2.929-7.678 2.929-10.606 0-2.929-2.929-2.929-7.678 0-10.606 16.792-16.793 16.793-44.117 0-60.912-12.85-12.85-33.758-12.85-46.608 0-4.696 4.697-7.283 10.941-7.283 17.583s2.586 12.886 7.283 17.583c3.474 3.474 8.092 5.387 13.005 5.387s9.531-1.913 13.005-5.387c2.929-2.929 7.678-2.929 10.606 0 2.929 2.929 2.929 7.678 0 10.606-6.307 6.307-14.692 9.781-23.612 9.781s-17.305-3.474-23.612-9.781c-7.529-7.53-11.675-17.541-11.675-28.189z" fill="url(#SVGID_1_)"/><g><path d="m320.746 327.342c-31.589 18.238-52.239 48.145-59.65 81.132-1.687 7.508 2.67 15.055 10.016 17.348 32.274 10.075 68.499 7.145 100.088-11.092 31.589-18.238 52.239-48.145 59.65-81.132 1.687-7.508-2.67-15.055-10.016-17.348-32.274-10.075-68.5-7.145-100.088 11.092z" fill="url(#SVGID_00000094607093279239192510000005701669527097121671_)"/><path d="m371.2 414.732c-6.2 3.58-12.573 6.57-19.07 8.983l-6.326-3.021c-30.087-14.359-59.972-14.937-83.09-1.589 23.119-13.348 37.561-39.517 40.169-72.753l.547-6.989c5.339-4.42 11.114-8.443 17.315-12.023 31.59-18.238 67.813-21.168 100.089-11.092 7.348 2.294 11.705 9.84 10.018 17.351-7.414 32.989-28.062 62.895-59.652 81.133z" fill="url(#SVGID_00000029751763763537352690000002272017868251846023_)"/><path d="m304.77 394.824c23.119-13.348 53.003-12.77 83.09 1.589l5.105 2.437c19.392-17.632 32.342-40.579 37.886-65.252 1.688-7.511-2.669-15.057-10.018-17.351-24.14-7.536-50.487-7.794-75.453.184l-.442 5.639c-2.608 33.237-17.05 59.407-40.168 72.754z" fill="url(#SVGID_00000042004151173718658360000016056810537022230183_)"/><path d="m353.634 366.612c19.033-10.989 42.652-12.53 67.194-4.723 4.462-9.011 7.826-18.514 10.023-28.291 1.688-7.511-2.669-15.057-10.018-17.351-9.565-2.986-19.477-4.824-29.512-5.465-5.509 25.158-18.654 44.842-37.687 55.83z" fill="url(#SVGID_00000103256378658627675760000014237103569499865257_)"/><path d="m271.111 425.822c32.274 10.075 68.499 7.145 100.088-11.092 31.589-18.238 52.238-48.145 59.65-81.132.843-3.754.176-7.517-1.621-10.629l-166.512 96.136c1.797 3.111 4.723 5.571 8.395 6.717z" fill="url(#SVGID_00000116203516636842334600000002357922587378705581_)"/><path d="m320.746 327.342c-31.589 18.238-52.239 48.145-59.65 81.132-1.687 7.508 2.67 15.055 10.016 17.348 32.274 10.075 68.499 7.145 100.088-11.092 31.589-18.238 52.239-48.145 59.65-81.132 1.687-7.508-2.67-15.055-10.016-17.348-32.274-10.075-68.5-7.145-100.088 11.092z" fill="url(#SVGID_00000006703030889370194050000012924386822007310265_)"/></g><g><path d="m158.824 176.44c7.183-12.441 18.962-20.575 31.955-23.494 2.957-.664 5.929 1.052 6.833 3.945 3.968 12.711 2.814 26.979-4.369 39.42s-18.962 20.575-31.955 23.494c-2.957.664-5.929-1.052-6.833-3.945-3.968-12.711-2.814-26.978 4.369-39.42z" fill="url(#SVGID_00000134957298075855297950000014285449443857417096_)"/><path d="m197.611 156.891c3.968 12.711 2.814 26.979-4.369 39.42s-18.962 20.575-31.955 23.494c-1.478.332-2.961.069-4.186-.638l37.864-65.582c1.226.707 2.194 1.86 2.646 3.306z" fill="url(#SVGID_00000098900331240885555610000001465897353018774174_)"/></g><path d="m158.371 255.448c6.032-8.775 8.287-19.373 6.348-29.844-4.815-26.001-29.887-43.237-55.888-38.421-15.252 2.824-28.491 11.42-37.278 24.202-8.788 12.782-12.072 28.221-9.247 43.473.754 4.073 4.667 6.763 8.74 6.009s6.763-4.668 6.009-8.74c-4.324-23.351 11.154-45.868 34.507-50.194 17.869-3.309 35.098 8.536 38.407 26.404 1.209 6.531-.197 13.142-3.959 18.615-3.763 5.473-9.432 9.154-15.962 10.363-4.831.895-9.72-.145-13.769-2.928-4.048-2.783-6.77-6.976-7.665-11.807-.754-4.073-4.667-6.763-8.74-6.009s-6.763 4.668-6.009 8.74c1.624 8.77 6.566 16.383 13.916 21.436s16.228 6.941 24.998 5.317c10.471-1.94 19.56-7.841 25.592-16.616z" fill="url(#SVGID_00000021823674462667273680000007808830554110450346_)"/><g><path d="m346.116 399.841c-18.36 0-27.879 18.36-64.599 18.36-41.479 0-57.12-19.04-57.12-52.359v-46.24c0-33.319 15.64-52.359 56.439-52.359 36.72 0 48.959 16.32 65.279 16.32 24.48 0 40.8-31.959 40.8-51.679 0-29.92-48.28-56.439-114.919-56.439-106.759 0-152.998 63.239-152.998 144.158v46.24c0 82.279 46.239 144.158 154.358 144.158 65.959 0 117.639-29.24 117.639-59.839.001-20.401-16.319-50.321-44.879-50.321z" fill="url(#SVGID_00000168829347758467534920000015360845469289402776_)"/><g><path d="m273.357 490c-45.882 0-80.668-11.835-103.394-35.176-20.257-20.807-30.964-51.576-30.964-88.982v-46.24c0-36.907 10.681-67.534 30.888-88.568 22.687-23.616 57.042-35.59 102.11-35.59 28.513 0 54.575 5.266 73.386 14.829 13.081 6.649 21.533 15.132 21.533 21.611 0 12.508-11.156 31.679-20.8 31.679-2.284 0-6.476-1.863-11.331-4.021-11.678-5.19-27.672-12.299-53.949-12.299-49.293 0-76.439 25.698-76.439 72.359v46.24c0 46.662 27.388 72.359 77.12 72.359 26.377 0 41.744-7.951 52.964-13.756 5.683-2.94 9.024-4.604 11.635-4.604 16.098 0 24.88 20.029 24.88 30.319 0 5.667-7.234 15.191-23.396 23.695-19.503 10.26-46.563 16.145-74.243 16.145z" fill="url(#SVGID_00000165923062861089187000000003204858591244789135_)"/><path d="m260.734 436.481c-36.516-6.446-56.336-30.955-56.336-70.639v-46.24c0-39.864 19.828-64.41 56.336-70.721v-53.17c-39.56 1.862-70.091 13.716-90.847 35.323-20.207 21.035-30.888 51.661-30.888 88.568v46.24c0 37.406 10.708 68.175 30.964 88.982 20.592 21.151 51.089 32.854 90.77 34.864v-53.207z" fill="url(#SVGID_00000143609450691601785330000003372591539558131359_)"/><path d="m345.383 210.272c-18.811-9.562-44.874-14.829-73.386-14.829-45.069 0-79.424 11.974-102.11 35.59-20.207 21.035-30.888 51.661-30.888 88.568v35.085l65.398 16.349v-51.434c0-46.662 27.146-72.359 76.439-72.359 26.276 0 42.271 7.108 53.949 12.299 4.854 2.158 9.047 4.021 11.331 4.021 9.644 0 20.8-19.171 20.8-31.679 0-6.479-8.452-14.962-21.533-21.611z" fill="url(#SVGID_00000057123475416013068040000002053533235562039466_)"/></g><path d="m118.999 338.698v27.144c0 82.279 46.239 144.158 154.358 144.158 65.959 0 117.639-29.24 117.639-59.839 0-20.399-16.32-50.319-44.88-50.319-18.36 0-27.879 18.36-64.599 18.36-32.609 0-49.249-11.767-54.874-32.989-1.53-5.774-107.644-46.515-107.644-46.515z" fill="url(#SVGID_00000125600204660253559490000006958895143792385678_)"/><path d="m390.998 450.16c0 30.6-51.68 59.84-117.64 59.84-10 0-19.48-.53-28.43-1.56-81.26-9.31-119.94-59.52-125.27-126.1 14.54-10.03 32.17-15.89 51.16-15.89 9.64 0 18.94 1.51 27.65 4.32 7.51 3.24 14.14 6.24 19.09 8.7 5.43 2.7 8.82 4.74 9.09 5.74.06.24.13.48.21.72 3.44 12.34 10.71 21.41 22.81 26.74 8.26 3.64 18.77 5.53 31.85 5.53 36.72 0 46.24-18.36 64.6-18.36 28.56 0 44.88 29.92 44.88 50.32z" fill="url(#SVGID_00000019655643717806349160000005550945859844210079_)"/><g><path d="m346.116 283.562c24.48 0 40.8-31.959 40.8-51.679 0-29.92-48.28-56.439-114.919-56.439-6.803 0-13.357.26-19.672.762v95.396c7.679-2.869 17.112-4.359 28.512-4.359 36.72 0 48.959 16.319 65.279 16.319z" fill="url(#SVGID_00000045604658103332299530000003241568696435395465_)"/><path d="m346.116 399.841c-18.36 0-27.879 18.36-64.599 18.36-11.717 0-21.369-1.521-29.192-4.452v95.409c6.736.551 13.738.842 21.032.842 65.959 0 117.639-29.24 117.639-59.839 0-20.4-16.32-50.32-44.88-50.32z" fill="url(#SVGID_00000138541363771293457580000004747071722152280734_)"/></g></g><g><path d="m99.685 372.116c3.718 13.877 1.14 27.957-5.983 39.208-1.621 2.561-4.936 3.449-7.621 2.042-11.794-6.182-21.067-17.087-24.785-30.964s-1.14-27.957 5.983-39.208c1.621-2.561 4.936-3.449 7.621-2.042 11.794 6.182 21.067 17.087 24.785 30.964z" fill="url(#SVGID_00000029010085705542976510000000606379477622847649_)"/><path d="m86.081 413.365c-11.794-6.182-21.067-17.087-24.785-30.964s-1.14-27.957 5.983-39.208c.811-1.28 2.045-2.143 3.412-2.509l19.6 73.147c-1.368.368-2.868.238-4.21-.466z" fill="url(#SVGID_00000050639979866085984830000000543071726210153402_)"/></g><g><path d="m208.775 368.688-5.72 13.87c-32.49-13.4-69.01-5.61-93.27 17.72-5.97 5.74-11.2 12.42-15.45 19.96l-7.4 13.17c-4.112 7.297-8.783 14.174-13.962 20.586-2.806 3.473-8.011 3.74-11.169.583-2.716-2.716-2.953-7.046-.533-10.028 4.646-5.724 8.861-11.898 12.584-18.501l7.41-13.16c5.17-9.17 11.57-17.27 18.91-24.16 28.441-26.79 70.831-35.61 108.6-20.04z" fill="url(#SVGID_00000029743595228155595330000002490766407245323944_)"/><path d="m100.176 388.728c-7.34 6.89-13.74 14.99-18.91 24.16l-7.41 13.16c-.257.455-.534.892-.795 1.343h17.256l4.019-7.153c4.25-7.54 9.48-14.22 15.45-19.96 24.26-23.33 60.78-31.12 93.27-17.72l5.72-13.87c-37.77-15.57-80.16-6.75-108.6 20.04z" fill="url(#SVGID_00000115503175900937687070000007863033662278634405_)"/></g><g><path d="m99.685 108.051c3.718 13.877 1.14 27.957-5.983 39.208-1.621 2.561-4.936 3.449-7.621 2.042-11.794-6.182-21.067-17.087-24.785-30.964s-1.14-27.957 5.983-39.208c1.621-2.561 4.936-3.449 7.621-2.042 11.794 6.183 21.067 17.087 24.785 30.964z" fill="url(#SVGID_00000094620416901869555200000015507945354430773405_)"/><path d="m86.081 149.301c-11.794-6.182-21.067-17.087-24.785-30.964s-1.14-27.957 5.983-39.208c.811-1.28 2.045-2.143 3.412-2.509l19.6 73.147c-1.368.367-2.868.237-4.21-.466z" fill="url(#SVGID_00000136376823925759103500000004209874454259082934_)"/></g><g><g><path d="m259.039 115.885c3.718 13.877 1.14 27.957-5.983 39.208-1.621 2.561-4.936 3.449-7.621 2.042-11.794-6.182-21.067-17.087-24.785-30.964s-1.14-27.957 5.983-39.208c1.621-2.561 4.936-3.449 7.621-2.042 11.794 6.183 21.067 17.087 24.785 30.964z" fill="url(#SVGID_00000053507768771237620190000001784268175592342432_)"/><path d="m245.435 157.135c-11.794-6.182-21.067-17.087-24.785-30.964s-1.14-27.957 5.983-39.208c.811-1.28 2.045-2.143 3.412-2.509l19.6 73.147c-1.368.367-2.868.237-4.21-.466z" fill="url(#SVGID_00000111191643680039909720000016695638656098222006_)"/></g><path d="m396.098 61.64c-24 45.43-78.3 65.87-126.3 47.54l-14.11-5.38c-64.76-24.72-138.66 5.01-168.25 67.69-17.18 36.38-17.1 78.07.2 114.38 7.72 16.19 18.41 30.39 31.36 42 16.11 14.45 35.7 24.89 57.36 30.2 10.43 2.56 20.61 5.84 30.47 9.81h.01c6.17 2.48 12.22 5.23 18.12 8.23 21.35 10.85 40.88 25.05 57.82 42.08-.41.01-.83.01-1.26.01-9.22 0-17.17-.94-23.95-2.77-8.24-6.87-17-13.1-26.18-18.62-9.34-5.63-19.14-10.54-29.29-14.67-9.48-3.86-19.27-7.04-29.31-9.5-5.35-1.31-10.58-2.9-15.68-4.76-13.76-5.01-26.58-11.98-38.11-20.62-18.94-14.19-34.41-32.91-44.9-54.94-19.25-40.39-19.33-86.77-.23-127.23 16.02-33.93 44.02-60.33 78.83-74.34 34.81-14 73.28-14.35 108.34-.97l14.11 5.39c40.93 15.62 87.23-1.81 107.69-40.54z" fill="url(#SVGID_00000014602368619245865100000014980080898523903128_)"/><path d="m206.838 367.88s0 0-.01 0c-9.86-3.97-20.04-7.25-30.47-9.81-11.941-2.927-23.247-7.421-33.693-13.279v16.935c4.684 2.292 9.5 4.354 14.443 6.154 5.1 1.86 10.33 3.45 15.68 4.76 10.04 2.46 19.83 5.64 29.31 9.5 10.15 4.13 19.95 9.04 29.29 14.67 9.18 5.52 17.94 11.75 26.18 18.62 6.78 1.83 14.73 2.77 23.95 2.77.43 0 .85 0 1.26-.01-16.94-17.03-36.47-31.23-57.82-42.08-5.9-3-11.95-5.75-18.12-8.23z" fill="url(#SVGID_00000047772647909734343420000011979736341341860517_)"/><path d="m269.793 109.18-14.11-5.38c-31.138-11.886-64.387-11.178-93.81-.277v-16.115c32.31-10.608 67.155-9.842 99.16 2.372l14.11 5.39c40.93 15.62 87.23-1.81 107.69-40.54l13.26 7.01c-24 45.43-78.3 65.87-126.3 47.54z" fill="url(#SVGID_00000145054092735550256390000010138497757230252985_)"/><g><path d="m339.932 16.821c-31.589 18.238-52.239 48.145-59.65 81.132-1.687 7.508 2.67 15.055 10.016 17.348 32.274 10.075 68.499 7.145 100.088-11.092 31.589-18.238 52.239-48.145 59.65-81.132 1.687-7.508-2.67-15.055-10.016-17.348-32.275-10.075-68.5-7.145-100.088 11.092z" fill="url(#SVGID_00000124149026830179300480000003500489702866600626_)"/><path d="m339.932 16.821c-31.589 18.238-52.239 48.145-59.65 81.132-1.687 7.508 2.67 15.055 10.016 17.348 32.274 10.075 68.499 7.145 100.088-11.092 31.589-18.238 52.239-48.145 59.65-81.132 1.687-7.508-2.67-15.055-10.016-17.348-32.275-10.075-68.5-7.145-100.088 11.092z" fill="url(#SVGID_00000124149026830179300480000003500489702866600626_)"/><path d="m390.386 104.211c-6.2 3.58-12.573 6.57-19.07 8.983l-6.326-3.021c-30.087-14.359-59.972-14.937-83.09-1.589 23.119-13.348 37.561-39.517 40.169-72.753l.547-6.989c5.339-4.42 11.114-8.443 17.315-12.023 31.589-18.238 67.812-21.167 100.088-11.092 7.348 2.294 11.705 9.84 10.018 17.351-7.413 32.989-28.061 62.895-59.651 81.133z" fill="url(#SVGID_00000150075189490351363180000017691143996404372648_)"/><path d="m323.956 84.303c23.119-13.348 53.003-12.77 83.09 1.589l5.105 2.437c19.392-17.632 32.342-40.579 37.886-65.252 1.688-7.511-2.669-15.057-10.018-17.351-24.14-7.536-50.487-7.794-75.453.184l-.442 5.639c-2.608 33.237-17.05 59.407-40.168 72.754z" fill="url(#SVGID_00000117675107728487078100000009979347551914336428_)"/><path d="m372.82 56.091c19.033-10.989 42.652-12.53 67.194-4.723 4.462-9.011 7.826-18.514 10.023-28.291 1.688-7.511-2.669-15.057-10.018-17.351-9.565-2.986-19.477-4.824-29.512-5.465-5.51 25.158-18.654 44.842-37.687 55.83z" fill="url(#SVGID_00000085968264230333460770000004846901080085586873_)"/><path d="m290.297 115.301c32.274 10.075 68.499 7.145 100.088-11.092 31.589-18.238 52.238-48.145 59.65-81.132.843-3.754.176-7.517-1.621-10.629l-166.512 96.136c1.797 3.111 4.723 5.571 8.395 6.717z" fill="url(#SVGID_00000030480471182753164900000008279232211957427135_)"/></g></g></g></svg>