<svg clip-rule="evenodd" fill-rule="evenodd" height="512" stroke-linejoin="round" stroke-miterlimit="2" viewBox="0 0 32 32" width="512" xmlns="http://www.w3.org/2000/svg"><g transform="translate(-160 -32)"><g id="Icon"><path d="m191 42c0-1.657-1.343-3-3-3h-18c-.796 0-1.559.316-2.121.879 0 0-6 6-6 6-1.172 1.171-1.172 3.071 0 4.242 0 0 6 6 6 6 .562.563 1.325.879 2.121.879h18c.796 0 1.559-.316 2.121-.879.563-.562.879-1.325.879-2.121zm-2 0v12c0 .265-.105.52-.293.707-.187.188-.442.293-.707.293h-18c-.265 0-.52-.105-.707-.293 0 0-6-6-6-6-.391-.39-.391-1.024 0-1.414 0 0 6-6 6-6 .187-.188.442-.293.707-.293h18c.552 0 1 .448 1 1z"/><g transform="translate(2)"><path d="m176 46.586-3.293-3.293c-.39-.39-1.024-.39-1.414 0s-.39 1.024 0 1.414l3.293 3.293-3.293 3.293c-.39.39-.39 1.024 0 1.414s1.024.39 1.414 0l3.293-3.293 3.293 3.293c.39.39 1.024.39 1.414 0s.39-1.024 0-1.414l-3.293-3.293 3.293-3.293c.39-.39.39-1.024 0-1.414s-1.024-.39-1.414 0z"/></g></g></g></svg>